<?xml version="1.0" encoding="UTF-8" standalone="no"?>
<!-- Created with Inkscape (http://www.inkscape.org/) -->

<svg
   version="1.1"
   id="svg109"
   width="305"
   height="500"
   viewBox="0 0 305 500"
   sodipodi:docname="newlogo.svg"
   inkscape:version="1.2.2 (732a01da63, 2022-12-09)"
   xmlns:inkscape="http://www.inkscape.org/namespaces/inkscape"
   xmlns:sodipodi="http://sodipodi.sourceforge.net/DTD/sodipodi-0.dtd"
   xmlns="http://www.w3.org/2000/svg"
   xmlns:svg="http://www.w3.org/2000/svg">
  <defs
     id="defs113" />
  <sodipodi:namedview
     id="namedview111"
     pagecolor="#505050"
     bordercolor="#eeeeee"
     borderopacity="1"
     inkscape:showpageshadow="0"
     inkscape:pageopacity="0"
     inkscape:pagecheckerboard="0"
     inkscape:deskcolor="#505050"
     showgrid="false"
     inkscape:zoom="2.332"
     inkscape:cx="250.42882"
     inkscape:cy="250.42882"
     inkscape:window-width="2560"
     inkscape:window-height="1369"
     inkscape:window-x="2552"
     inkscape:window-y="-8"
     inkscape:window-maximized="1"
     inkscape:current-layer="g115" />
  <g
     inkscape:groupmode="layer"
     inkscape:label="Image"
     id="g115">
    <path
       style="fill:#000000;stroke-width:2.11374"
       d="m 102.47185,496.69316 c -20.734864,-5.02693 -42.443554,-19.69677 -50.356024,-39.51079 -5.34223,-13.37789 -0.50873,-30.04813 6.27131,-42.75788 5.47835,-10.26961 16.71094,-16.03367 25.87242,-23.45019 -16.6525,-4.00646 -36.84804,-19.18669 -36.5529,-33.17489 0.27256,-12.91735 8.28791,-31.80345 13.95565,-45.2627 6.40898,-15.21944 30.91903,-59.64206 14.06646,-95.27507 -10.71275,-22.65099 5.82724,-24.33251 33.438904,-1.18653 18.97953,15.90995 -6.81281,39.50684 -15.670704,59.52686 -8.5926,19.42042 -20.50296,40.86516 -27.04521,62.99842 -4.15317,14.05078 -1.51378,23.55797 7.74947,27.96268 5.69051,2.70586 11.74577,4.6824 22.95859,5.80986 3.799934,-8.58907 13.543334,-21.98326 27.573534,-33.37194 3.06062,-37.01192 21.91715,-124.28934 48.91445,-192.2523 9.2148,-23.19732 36.29346,-78.667029 44.16997,-98.59258 -32.00973,-7.333533 -70.79206,7.208881 -98.79044,26.693686 C 63.967786,113.1671 28.717486,182.96969 2.3078461,238.78414 c 0,0 20.3489059,-58.45806 35.0446509,-85.54205 C 58.410465,114.43263 78.495105,72.194781 112.74325,44.325858 139.99679,22.148691 174.7413,5.543329 209.79974,3.2007069 c 32.25679,-2.1554143 70.12698,0.055984 93.54076,25.6211541 -24.45877,13.947713 -52.3856,69.656574 -72.51376,105.103419 -57.78121,101.75604 -68.04991,175.67681 -80.89482,216.68516 -20.87658,3.75829 -26.49723,12.94623 -33.47226,26.6527 11.29661,4.66316 26.34933,8.94314 37.44046,16.9951 9.18095,6.66522 18.40012,14.72941 22.97521,25.11132 5.20642,11.81453 6.83641,26.12039 3.44828,38.57875 -2.96537,10.90378 -10.18996,21.48717 -19.70274,27.58579 -16.61539,10.65204 -38.96798,15.80928 -58.14902,11.15906 z m 32.66466,-60.86308 c 1.49547,-8.43302 -4.96454,-17.8478 -12.01368,-22.71211 -5.52643,-3.81355 -13.81688,-5.13004 -19.98937,-2.48717 -6.627104,2.8375 -12.237474,10.19355 -12.879244,17.37393 -0.57419,6.42437 3.47615,13.40303 8.58382,17.34179 5.646714,4.35439 14.073164,6.17449 20.954324,4.30481 6.64287,-1.80492 14.14216,-7.0433 15.34415,-13.82125 z"
       id="path119"
       sodipodi:nodetypes="aaacsssssssccscacaaacsccaaaaaaaaaaaa" />
  </g>
</svg>
